<?xml version="1.0" encoding="UTF-8"?>
<svg width="135px" height="25px" viewBox="0 0 135 25" version="1.1" xmlns="http://www.w3.org/2000/svg" xmlns:xlink="http://www.w3.org/1999/xlink">
    <title>Artboard</title>
    <g id="Artboard" stroke="none" stroke-width="1" fill="none" fill-rule="evenodd">
        <g id="logo_english" fill="#303952" fill-rule="nonzero">
            <polygon id="Fill-303" points="34.2519398 23.5998298 31.9235964 23.5998298 31.9235964 9.17028163 2.3679488 9.17028163 2.3679488 23.5998298 0.0396054217 23.5998298 0.0396054217 6.84193825 34.2519398 6.84193825"></polygon>
            <polygon id="Fill-304" points="84.523134 23.5998298 50.3103931 23.5998298 50.3103931 6.84315813 52.6387364 6.84315813 52.6387364 21.2714864 82.1947907 21.2714864 82.1947907 6.84315813 84.523134 6.84315813"></polygon>
            <polygon id="Fill-305" points="125.717083 23.5998298 91.5043419 23.5998298 91.5043419 6.84315813 93.8326852 6.84315813 93.8326852 21.2714864 125.717083 21.2714864"></polygon>
            <polygon id="Fill-306" points="41.2339608 23.5997892 43.561491 23.5997892 43.561491 6.84271084 41.2339608 6.84271084"></polygon>
            <polygon id="Fill-307" points="41.2339608 4.98076807 43.561491 4.98076807 43.561491 0.0931174699 41.2339608 0.0931174699"></polygon>
            <polygon id="Fill-308" points="132.467123 23.5997892 134.794654 23.5997892 134.794654 6.84271084 132.467123 6.84271084"></polygon>
            <polygon id="Fill-309" points="132.467123 4.98076807 134.794654 4.98076807 134.794654 0.0931174699 132.467123 0.0931174699"></polygon>
        </g>
    </g>
</svg>